<svg xmlns="http://www.w3.org/2000/svg" width="16" height="16" fill="currentColor" viewBox="0 0 16 16" aria-hidden="true">
  <path d="M7.657 6.247c.11-.33.576-.33.686 0l.645 1.937a2.89 2.89 0 0 0 1.829 1.828l1.936.645c.33.11.33.576 0 .686l-1.937.645a2.89 2.89 0 0 0-1.828 1.829l-.645 1.936a.361.361 0 0 1-.686 0l-.645-1.937a2.89 2.89 0 0 0-1.828-1.828l-1.937-.645c-.33-.11-.33-.576 0-.686l1.937-.645a2.89 2.89 0 0 0 1.828-1.829l.645-1.936z"/>
  <path d="M3.794 1.148a.217.217 0 0 1 .412 0l.387 1.162c.173.518.58.924 1.099 1.099l1.162.387a.217.217 0 0 1 0 .412l-1.162.387A1.734 1.734 0 0 0 4.593 5.69l-.387 1.162a.217.217 0 0 1-.412 0L3.407 4.69A1.734 1.734 0 0 0 2.31 3.793l-1.162-.387a.217.217 0 0 1 0-.412l1.162-.387A1.734 1.734 0 0 0 3.407 2.31l.387-1.162zM13.31 9.31l-.387 1.162a.217.217 0 0 1-.412 0l-.387-1.162a1.734 1.734 0 0 0-1.097-1.097l-1.162-.387a.217.217 0 0 1 0-.412l1.162-.387a1.734 1.734 0 0 0 1.097-1.097l.387-1.162a.217.217 0 0 1 .412 0l.387 1.162a1.734 1.734 0 0 0 1.097 1.097l1.162.387a.217.217 0 0 1 0 .412l-1.162.387a1.734 1.734 0 0 0-1.097 1.097z"/>
</svg>
