<?xml version="1.0" encoding="utf-8"?>
<!-- Generator: Adobe Illustrator 27.5.0, SVG Export Plug-In . SVG Version: 6.00 Build 0)  -->
<svg version="1.1" id="Layer_1" xmlns="http://www.w3.org/2000/svg" xmlns:xlink="http://www.w3.org/1999/xlink" x="0px" y="0px"
	 viewBox="0 0 146 138.5" style="enable-background:new 0 0 146 138.5;" xml:space="preserve">
<style type="text/css">
	.st0{fill:#01579B;}
	.st1{fill:#40C4FF;}
	.st2{fill:#29B6F6;}
	.st3{opacity:0.2;fill:#FFFFFF;enable-background:new    ;}
	.st4{opacity:0.2;fill:#263238;enable-background:new    ;}
	.st5{opacity:0.2;fill:url(#SVGID_1_);enable-background:new    ;}
</style>
<g>
	<g>
		<path class="st0" d="M31.6,109.5L8.4,86.2c-2.8-2.8-4.5-6.8-4.5-10.7c0-1.8,1-4.6,1.8-6.3l21.5-44.7L31.6,109.5z"/>
		<path class="st1" d="M111.3,29L88,5.7c-2-2-6.3-4.5-9.8-4.5c-3.1,0-6.1,0.6-8.1,1.8L27.2,24.5L111.3,29z"/>
		<polygon class="st1" points="59.4,137.2 115.8,137.2 115.8,113.1 73.7,99.7 35.2,113.1 		"/>
		<path class="st2" d="M27.2,97c0,7.2,0.9,8.9,4.5,12.5l3.6,3.6h80.5L76.4,68.3L27.2,24.5V97z"/>
		<path class="st0" d="M98.8,24.5H27.2l88.6,88.6h24.2V57.6L111.3,29C107.3,24.9,103.7,24.5,98.8,24.5z"/>
		<path class="st3" d="M32.5,110.4c-3.6-3.6-4.5-7.1-4.5-13.4V25.4l-0.9-0.9V97C27.2,103.3,27.2,105,32.5,110.4l2.7,2.7l0,0
			L32.5,110.4z"/>
		<polygon class="st4" points="139,56.7 139,112.2 114.9,112.2 115.8,113.1 139.9,113.1 139.9,57.6 		"/>
		<path class="st3" d="M111.3,29c-4.4-4.4-8.1-4.5-13.4-4.5H27.2l0.9,0.9h69.8C100.6,25.4,107.3,24.9,111.3,29L111.3,29z"/>
		
			<radialGradient id="SVGID_1_" cx="71.915" cy="961.7807" r="68" gradientTransform="matrix(1 0 0 1 0 -892.5557)" gradientUnits="userSpaceOnUse">
			<stop  offset="0" style="stop-color:#FFFFFF;stop-opacity:0.1"/>
			<stop  offset="1" style="stop-color:#FFFFFF;stop-opacity:0"/>
		</radialGradient>
		<path class="st5" d="M139,56.7L111.3,29L88,5.7c-2-2-6.3-4.5-9.8-4.5c-3.1,0-6.1,0.6-8.1,1.8L27.2,24.5L5.7,69.2
			c-0.8,1.6-1.8,4.5-1.8,6.3c0,3.9,1.7,7.9,4.5,10.7l21.4,21.3c0.5,0.6,1.1,1.3,1.8,2l0.9,0.9l2.7,2.7l23.3,23.3l0.9,0.9h55.5h0.9
			v-24.2h24.2V113V57.6L139,56.7z"/>
	</g>
</g>
</svg>
