<?xml version="1.0" encoding="utf-8"?>
<!-- Generator: Adobe Illustrator 27.5.0, SVG Export Plug-In . SVG Version: 6.00 Build 0)  -->
<svg version="1.1" id="Layer_1" xmlns="http://www.w3.org/2000/svg" xmlns:xlink="http://www.w3.org/1999/xlink" x="0px" y="0px"
	 viewBox="0 0 512 512" style="enable-background:new 0 0 512 512;" xml:space="preserve">
<style type="text/css">
	.st0{display:none;}
	.st1{display:inline;fill:#333333;}
	.st2{display:inline;}
	.st3{opacity:0.3;enable-background:new    ;}
	.st4{fill:url(#tube_00000014609394387769032300000011119838695391077034_);}
	.st5{fill:url(#liquid_00000139264942090225638780000004728246656495902136_);}
	.st6{fill:#333333;}
	.st7{opacity:0.3;fill:#FFFFFF;enable-background:new    ;}
	.st8{opacity:0.5;fill:#FFFFFF;enable-background:new    ;}
	.st9{opacity:0.1;enable-background:new    ;}
	.st10{fill:url(#tube_00000099632098614525980230000013616385397618779056_);}
	.st11{fill:url(#liquid_00000019645278201717032060000002419430385343684265_);}
</style>
<g id="logo-bg-dark" class="st0">
	<rect id="bg" class="st1" width="512" height="512"/>
	<g id="test-tube" class="st2">
		<path id="shadow_2_" class="st3" d="M269,59.2c-0.2,0.7-0.2,1.5,0,2.4c0,0,2.5,16.6-0.3,24l-121,314.6l0,0
			c-8.6,23.1,2.9,48.9,26,57.8c23.1,8.9,49-2.5,58-25.5l0,0l121-314.6c2.4-6.2,15.9-18.1,15.9-18.1c0.7-0.5,1.2-1.1,1.6-1.8l0.1-0.1
			c0.1-0.1,0.1-0.3,0.2-0.4c3.1-8.1-17-23.4-45-34.2c-27.9-10.7-53.1-12.9-56.3-4.8c-0.1,0.1-0.1,0.3-0.1,0.4L269,59.2z"/>
		
			<linearGradient id="tube_00000105403405826048830760000006632809761116759960_" gradientUnits="userSpaceOnUse" x1="69.8552" y1="165.1552" x2="146.5262" y2="88.4841" gradientTransform="matrix(0.9138 -0.4062 -0.4062 -0.9138 198.7073 417.8406)">
			<stop  offset="0" style="stop-color:#919191"/>
			<stop  offset="1" style="stop-color:#FFFFFF"/>
		</linearGradient>
		<path id="tube_2_" style="fill:url(#tube_00000105403405826048830760000006632809761116759960_);" d="M265.5,56.5
			c-0.2,0.7-0.2,1.5,0,2.4c0,0,2.5,16.6-0.3,24l-121,314.6l0,0c-8.6,23.1,2.9,48.9,26,57.8c23.1,8.9,49-2.5,58-25.5l0,0l121-314.6
			c2.4-6.2,15.9-18.1,15.9-18.1c0.7-0.5,1.2-1.1,1.6-1.8l0.1-0.1c0.1-0.1,0.1-0.3,0.2-0.4c3.1-8.1-17-23.4-45-34.2
			c-27.9-10.7-53.1-12.9-56.3-4.8c-0.1,0.1-0.1,0.3-0.1,0.4L265.5,56.5z"/>
		
			<linearGradient id="liquid_00000057854558752318990250000008012977007261548953_" gradientUnits="userSpaceOnUse" x1="41.026" y1="106.6658" x2="87.4428" y2="60.2491" gradientTransform="matrix(0.9138 -0.4062 -0.4062 -0.9138 198.7073 417.8406)">
			<stop  offset="0" style="stop-color:#990000"/>
			<stop  offset="1" style="stop-color:#E80000"/>
		</linearGradient>
		<path id="liquid" style="fill:url(#liquid_00000057854558752318990250000008012977007261548953_);" d="M303.5,198.8l-87.3,226.9
			l0.1,0c-6.4,16.3-25.2,24.7-41.8,18.3c-16.6-6.4-25.6-25.5-19.5-41.9l0,0l55.8-145c0,0,7-11.2,20.6-19.2
			c13.7-8,24.9-6.3,40.1-13.1C286.7,218.2,303.5,198.8,303.5,198.8z"/>
		
			<ellipse id="top" transform="matrix(0.359 -0.9333 0.9333 0.359 131.4165 343.7771)" class="st6" cx="316" cy="76.2" rx="8.9" ry="33.6"/>
		<path id="side-reflection" class="st7" d="M265.5,58.8c0,0,2.5,16.7-0.3,24l-121,314.6l0,0c-8.6,23.1,2.9,48.9,26,57.8
			c4,1.5,8.1,2.5,12.2,2.8c-15.6-11.7-22.2-32.6-15.1-51.7l0,0L285.8,98C285.8,98,269.7,82.8,265.5,58.8z"/>
		<g id="bubbles">
			<circle class="st8" cx="226.5" cy="261.8" r="3.5"/>
			<circle class="st8" cx="249.5" cy="287.2" r="5.3"/>
			<circle class="st8" cx="214.4" cy="317.5" r="9.9"/>
			<circle class="st8" cx="198.4" cy="335.8" r="5.3"/>
			<circle class="st8" cx="219.4" cy="375" r="3.5"/>
		</g>
	</g>
</g>
<g id="logo-bg-light">
	<g id="test-tube_1_">
		<path id="shadow_1_" class="st9" d="M269,59.2c-0.2,0.7-0.2,1.5,0,2.4c0,0,2.5,16.6-0.3,24l-121,314.6l0,0
			c-8.6,23.1,2.9,48.9,26,57.8c23.1,8.9,49-2.5,58-25.5l0,0l121-314.6c2.4-6.2,15.9-18.1,15.9-18.1c0.7-0.5,1.2-1.1,1.6-1.8l0.1-0.1
			c0.1-0.1,0.1-0.3,0.2-0.4c3.1-8.1-17-23.4-45-34.2c-27.9-10.7-53.1-12.9-56.3-4.8c-0.1,0.1-0.1,0.3-0.1,0.4L269,59.2z"/>
		
			<linearGradient id="tube_00000075148819622672131270000013236417759659031734_" gradientUnits="userSpaceOnUse" x1="69.8552" y1="165.1552" x2="146.5262" y2="88.4841" gradientTransform="matrix(0.9138 -0.4062 -0.4062 -0.9138 198.7073 417.8406)">
			<stop  offset="0" style="stop-color:#919191"/>
			<stop  offset="1" style="stop-color:#FFFFFF"/>
		</linearGradient>
		<path id="tube_1_" style="fill:url(#tube_00000075148819622672131270000013236417759659031734_);" d="M265.5,56.5
			c-0.2,0.7-0.2,1.5,0,2.4c0,0,2.5,16.6-0.3,24l-121,314.6l0,0c-8.6,23.1,2.9,48.9,26,57.8c23.1,8.9,49-2.5,58-25.5l0,0l121-314.6
			c2.4-6.2,15.9-18.1,15.9-18.1c0.7-0.5,1.2-1.1,1.6-1.8l0.1-0.1c0.1-0.1,0.1-0.3,0.2-0.4c3.1-8.1-17-23.4-45-34.2
			c-27.9-10.7-53.1-12.9-56.3-4.8c-0.1,0.1-0.1,0.3-0.1,0.4L265.5,56.5z"/>
		
			<linearGradient id="liquid_00000086676409938566296240000008987757472377147826_" gradientUnits="userSpaceOnUse" x1="41.026" y1="106.6658" x2="87.4428" y2="60.2491" gradientTransform="matrix(0.9138 -0.4062 -0.4062 -0.9138 198.7073 417.8406)">
			<stop  offset="0" style="stop-color:#990000"/>
			<stop  offset="1" style="stop-color:#E80000"/>
		</linearGradient>
		<path id="liquid_1_" style="fill:url(#liquid_00000086676409938566296240000008987757472377147826_);" d="M303.5,198.8
			l-87.3,226.9l0.1,0c-6.4,16.3-25.2,24.7-41.8,18.3c-16.6-6.4-25.6-25.5-19.5-41.9l0,0l55.8-145c0,0,7-11.2,20.6-19.2
			c13.7-8,24.9-6.3,40.1-13.1C286.7,218.2,303.5,198.8,303.5,198.8z"/>
		
			<ellipse id="top_1_" transform="matrix(0.359 -0.9333 0.9333 0.359 131.4165 343.7771)" class="st6" cx="316" cy="76.2" rx="8.9" ry="33.6"/>
		<path id="side-reflection_1_" class="st7" d="M265.5,58.8c0,0,2.5,16.7-0.3,24l-121,314.6l0,0c-8.6,23.1,2.9,48.9,26,57.8
			c4,1.5,8.1,2.5,12.2,2.8c-15.6-11.7-22.2-32.6-15.1-51.7l0,0L285.8,98C285.8,98,269.7,82.8,265.5,58.8z"/>
		<g id="bubbles_1_">
			<circle class="st8" cx="226.5" cy="261.8" r="3.5"/>
			<circle class="st8" cx="249.5" cy="287.2" r="5.3"/>
			<circle class="st8" cx="214.4" cy="317.5" r="9.9"/>
			<circle class="st8" cx="198.4" cy="335.8" r="5.3"/>
			<circle class="st8" cx="219.4" cy="375" r="3.5"/>
		</g>
	</g>
</g>
</svg>
