<?xml version="1.0" encoding="UTF-8"?><svg id="Layer_2" xmlns="http://www.w3.org/2000/svg" viewBox="0 0 310.75 314.98"><g id="Layer_1-2"><path d="m138.9,0C104.45,0,73.84,22.19,63.17,54.93c-22.15,4.57-41.27,18.44-52.48,38.08-17.28,29.87-13.33,67.41,9.82,93.01-7.15,21.44-4.69,44.9,6.72,64.32,17.17,29.97,51.73,45.33,85.55,38.18,14.98,16.9,36.51,26.54,59.09,26.45,34.45,0,65.06-22.19,75.73-54.93,22.19-4.59,41.28-18.46,52.37-38.08,17.39-29.87,13.44-67.41-9.71-93.01v-.11c7.14-21.44,4.69-44.92-6.72-64.43-17.18-29.87-51.74-45.23-85.44-38.08C183.06,9.49,161.5-.11,138.9,0Zm0,20.48l-.11.11c13.87,0,27.2,4.8,37.87,13.66-.43.21-1.28.74-1.92,1.07l-62.72,36.16c-3.2,1.81-5.12,5.23-5.12,8.96v84.9l-26.99-15.57v-70.19c-.01-32.6,26.38-59.05,58.98-59.1h0Zm75.55,24.72c21.16-.04,40.72,11.24,51.27,29.57,6.83,11.95,9.38,25.92,7.04,39.47-.43-.32-1.28-.74-1.81-1.07l-62.72-36.27c-3.21-1.81-7.14-1.81-10.34,0l-73.49,42.45v-31.15l60.69-35.09c8.92-5.17,19.05-7.91,29.37-7.92h0ZM59.33,77.44v74.56c0,3.73,1.92,7.04,5.12,8.96l73.38,42.35-27.1,15.68-60.59-34.99c-28.19-16.34-37.83-52.42-21.54-80.64,6.9-11.96,17.77-21.13,30.72-25.92h0Zm140.58,18.45l60.69,34.99c28.27,16.32,37.86,52.37,21.54,80.64l.11.11c-6.93,11.95-17.81,21.12-30.72,25.81v-74.56c0-3.73-1.92-7.15-5.12-8.96l-73.49-42.46,26.99-15.57Zm-44.59,25.71l30.94,17.92v35.73l-30.94,17.92-30.93-17.92v-35.73l30.93-17.92Zm48.64,28.16l26.99,15.57v70.08c0,32.64-26.45,59.09-58.98,59.09v-.11c-13.76,0-27.2-4.8-37.76-13.65.43-.21,1.39-.75,1.92-1.07l62.72-36.16c3.2-1.81,5.23-5.23,5.12-8.96v-84.8Zm-17.6,45.86v31.14l-60.69,34.99c-28.27,16.21-64.32,6.61-80.64-21.55h.11c-6.93-11.84-9.39-25.92-7.04-39.47.43.32,1.28.74,1.81,1.07l62.72,36.27c3.21,1.81,7.14,1.81,10.34,0l73.39-42.45Z" style="fill:#0f0f0f;"/></g></svg>